<svg width="25" height="24" viewBox="0 0 25 24" fill="none" xmlns="http://www.w3.org/2000/svg">
<g clip-path="url(#clip0_471_142)">
<path fill-rule="evenodd" clip-rule="evenodd" d="M3.51382 8.42077C4.57667 5.78923 4.5681 3.08154 3.65953 1L8.80239 6.07692C6.75382 7.26154 5.37382 9.47 5.37382 12C5.37382 14.53 6.75382 16.7385 8.80239 17.9231L7.0881 19.6154L0.230957 12.8462C1.59382 11.7969 2.7681 10.2738 3.51382 8.41231V8.42077ZM13.9453 10.3077L12.231 1L10.5167 10.3077L6.23096 12L10.5167 13.6923L12.231 23L13.9453 13.6923L18.231 12L13.9453 10.3077ZM20.8024 1C19.8939 3.08154 19.8853 5.78923 20.9481 8.42077C21.6939 10.2738 22.8681 11.7969 24.231 12.8462L17.3739 19.6154L15.6596 17.9231C17.7081 16.7385 19.0881 14.53 19.0881 12C19.0881 9.47 17.7081 7.26154 15.6596 6.07692L20.8024 1Z" fill="#A5F243"/>
</g>
<defs>
<clipPath id="clip0_471_142">
<rect width="24" height="24" fill="white" transform="translate(0.230957)"/>
</clipPath>
</defs>
</svg>
