<svg width="25" height="24" viewBox="0 0 25 24" fill="none" xmlns="http://www.w3.org/2000/svg">
<path fill-rule="evenodd" clip-rule="evenodd" d="M16.0966 9.63074C15.0852 10.3906 13.8081 10.7236 12.1367 10.7236H12.1452C10.4738 10.7236 9.18811 10.4077 8.18526 9.64781L6.0767 4.1238L9.92525 6.14728L12.1367 0L14.3566 6.13874L18.2052 4.11526L16.0966 9.63927V9.63074ZM24.1366 12.2177C22.0023 12.2177 20.5452 13.2508 20.1338 14.3863C19.5766 15.9146 20.7423 19.0651 20.7423 19.0651C15.9338 17.0587 14.4252 19.8335 12.8652 22.7108C12.6252 23.1462 12.3938 23.5816 12.1452 24C11.8967 23.5816 11.6567 23.1377 11.4252 22.7108C9.85668 19.8335 8.35669 17.0587 3.54814 19.0651C3.54814 19.0651 4.70528 15.9146 4.15671 14.3949C3.74528 13.2593 2.28815 12.2263 0.153869 12.2263C0.145298 10.1857 1.04529 6.91569 3.78814 4.78122C4.80813 9.18677 6.77955 12.4312 12.1538 12.4312C17.5281 12.4312 19.4909 9.17823 20.5195 4.77268C23.2623 6.90715 24.1623 10.1772 24.1537 12.2177H24.1366Z" fill="#A5F243"/>
</svg>
