<svg width="25" height="24" viewBox="0 0 25 24" fill="none" xmlns="http://www.w3.org/2000/svg">
<path fill-rule="evenodd" clip-rule="evenodd" d="M22.2084 12.1834L19.8298 18.4799L23.3076 18.0277L16.7213 24L5.60096 19.717H11.6291C11.6291 19.717 6.07326 16.6541 3.35114 13.1305C1.46197 10.6818 0.689127 8.45503 1.86556 7.30324C3.46277 5.72485 6.94056 6.55244 8.71809 6.97903C8.87266 7.01315 9.01864 7.04728 9.14745 7.08141L9.49093 9.76893L9.1131 9.67508C6.9749 9.11198 2.92178 10.2723 14.1881 18.241C13.7415 16.4408 11.8438 14.6406 11.8438 14.6406L9.98899 0L17.9492 15.9033L22.2084 12.1834ZM16.0257 8.21614C17.5542 8.27586 18.5761 8.01138 18.37 7.11554C17.7947 4.67544 13.046 1.37362 13.046 1.37362C13.046 1.37362 24.1577 5.81017 22.2084 9.15464C21.5129 10.3576 19.5293 10.7416 17.3052 10.7586L16.0343 8.21614H16.0257Z" fill="#A5F243"/>
</svg>
