<svg width="25" height="24" viewBox="0 0 25 24" fill="none" xmlns="http://www.w3.org/2000/svg">
<g clip-path="url(#clip0_471_144)">
<path d="M24.3533 8.72474C23.1431 8.84418 22.0453 9.68029 22.0453 9.68029C22.0453 9.68029 24.094 6.83071 22.927 3L16.5994 6.68568C17.7923 7.28289 18.5444 8.12753 18.5444 9.06601C18.5444 9.66322 18.2332 10.2093 17.7232 10.6956C16.4524 9.16839 14.5248 8.20431 12.381 8.20431C10.2372 8.20431 8.30948 9.17692 7.04742 10.6956C6.5374 10.2178 6.22621 9.66322 6.22621 9.06601C6.22621 8.11899 6.97826 7.27436 8.17118 6.68568L1.82626 3C0.650631 6.82218 2.70798 9.68029 2.70798 9.68029C2.70798 9.68029 1.6188 8.83565 0.399946 8.72474C0.149262 11.9753 3.07968 13.2209 3.55512 13.1697C3.37359 13.2636 2.80307 13.639 2.41407 14.8078C3.08833 15.6013 5.14567 15.6183 5.47415 15.6098C5.74213 19.176 8.73305 22 12.381 22C16.0289 22 19.0284 19.1846 19.2964 15.6098C19.6335 15.6098 21.6822 15.5927 22.3565 14.8078C21.9589 13.6475 21.397 13.2721 21.2155 13.1697C21.6822 13.2295 24.6127 11.9753 24.3706 8.72474H24.362H24.3533ZM15.2077 19.0139L11.093 16.9151V10.7467L12.381 9.467L13.669 10.7467V15.3538L16.3833 16.736L16.9365 18.4594L15.2077 19.0139Z" fill="#A5F243"/>
</g>
<defs>
<clipPath id="clip0_471_144">
<rect width="24" height="24" fill="white" transform="translate(0.384766)"/>
</clipPath>
</defs>
</svg>
