<svg width="25" height="24" viewBox="0 0 25 24" fill="none" xmlns="http://www.w3.org/2000/svg">
<path d="M20.084 13.5086C20.084 13.5086 23.0771 12.0086 23.0771 8.08286C23.0771 8.08286 21.2001 9.56571 19.3062 9.91714C19.9487 9.06 20.6251 7.97143 20.938 6.82286C20.938 6.82286 19.3062 4.38 16.3723 3.18L16.8119 0C15.4084 1.09714 14.36 2.59714 13.8019 4.30286L16.6428 6.63429L12.0771 10.4057L7.51143 6.63429L10.3523 4.30286C9.79429 2.59714 8.74587 1.10571 7.34233 0L7.78199 3.18C4.8481 4.38857 3.21627 6.82286 3.21627 6.82286C3.52911 7.97143 4.20551 9.06 4.8481 9.91714C2.95417 9.56571 1.07715 8.08286 1.07715 8.08286C1.07715 12.0086 4.07023 13.5086 4.07023 13.5086C2.56524 13.5086 1.96493 14.7343 1.96493 14.7343C6.42919 17.34 8.44149 20.1943 8.68668 20.5457V22.2857L10.3776 24H13.7597L15.4507 22.2857V20.5543C15.6874 20.2029 17.7082 17.3486 22.1724 14.7429C22.1724 14.7429 21.5721 13.5171 20.0671 13.5171H20.084V13.5086ZM6.92803 12.48C6.92803 12.48 11.1048 11.8886 11.1893 15.0514C11.2147 16.1657 10.7497 17.1686 9.26162 17.0657C7.77354 16.9714 6.84348 14.9143 6.92803 12.4714V12.48ZM14.918 17.0743C13.4299 17.1686 12.9649 16.1743 12.9902 15.06C13.0748 11.8971 17.2516 12.4886 17.2516 12.4886C17.3361 14.9314 16.4061 16.98 14.918 17.0829V17.0743Z" fill="#A5F243"/>
</svg>
