<svg width="25" height="24" viewBox="0 0 25 24" fill="none" xmlns="http://www.w3.org/2000/svg">
<g clip-path="url(#clip0_471_148)">
<path fill-rule="evenodd" clip-rule="evenodd" d="M12.6924 6.28861C13.9781 3.7417 16.5667 2 19.5581 2C21.5295 2 23.3295 2.76145 24.6924 4.00427C24.5553 7.74148 21.5381 10.7435 17.8438 10.7435C17.2781 10.7435 16.7295 10.656 16.1981 10.5247C16.1553 10.3059 16.1295 10.0958 16.1295 9.86828C16.1295 7.93403 17.6638 6.36738 19.5581 6.36738L19.5753 8.66922C20.9638 8.16159 22.0781 7.06756 22.6181 5.6672C21.761 5.01953 20.7067 4.61692 19.5581 4.61692C16.7124 4.61692 14.4067 6.97128 14.4067 9.86828V12.494L12.6924 15.1196L10.9781 12.494V9.86828C10.9781 6.97128 8.67238 4.61692 5.82667 4.61692C4.67809 4.61692 3.62381 5.01953 2.76667 5.6672C3.30667 7.0588 4.42095 8.16159 5.80952 8.66922L5.82667 6.36738C7.71238 6.36738 9.25524 7.94278 9.25524 9.86828C9.25524 10.0958 9.22952 10.3146 9.18667 10.5247C8.65524 10.6647 8.10667 10.7435 7.54095 10.7435C3.84667 10.7435 0.829526 7.74148 0.692383 4.00427C2.05524 2.76145 3.85524 2 5.82667 2C8.81809 2 11.4067 3.7417 12.6924 6.28861ZM16.9867 11.6187L18.6581 12.9841H18.6495C20.0638 14.1394 20.2267 16.2749 19.0095 17.6403L15.1867 21.9289C13.8667 23.408 11.561 23.3468 10.3181 21.7976L6.76095 17.3602C5.74095 16.0824 5.83524 14.2269 6.97524 13.0629L8.39809 11.6187L12.6924 18.6205L16.9867 11.6187Z" fill="#A5F243"/>
</g>
<defs>
<clipPath id="clip0_471_148">
<rect width="24" height="24" fill="white" transform="translate(0.692383)"/>
</clipPath>
</defs>
</svg>
