<svg width="25" height="24" viewBox="0 0 25 24" fill="none" xmlns="http://www.w3.org/2000/svg">
<g clip-path="url(#clip0_471_150)">
<mask id="mask0_471_150" style="mask-type:luminance" maskUnits="userSpaceOnUse" x="0" y="0" width="25" height="24">
<path d="M24.5386 0H0.538574V24H24.5386V0Z" fill="white"/>
</mask>
<g mask="url(#mask0_471_150)">
<path d="M23.6812 10.5721L20.44 8.79686C21.0231 7.8878 21.589 6.62712 21.589 5.10917C21.589 1.90173 19.0681 -0.276577 18.9995 2.37341C18.948 4.47454 18.0649 5.71806 16.6501 6.58424L13.649 0.675362C13.1945 -0.225121 11.8827 -0.225121 11.4282 0.675362L8.4271 6.58424C7.01231 5.71806 6.12914 4.47454 6.07769 2.37341C6.0091 -0.268001 3.4882 1.90173 3.4882 5.10917C3.4882 6.62712 4.04554 7.8878 4.6286 8.79686L1.38745 10.5721C0.255616 11.1981 0.255616 12.8019 1.38745 13.4279L5.34028 15.5891C5.20309 17.0727 4.49998 18.3248 2.80224 19.3368C0.504276 20.7089 3.67683 21.7724 6.50642 20.1772C7.51821 19.6026 8.24704 18.8394 8.76151 18.0847L11.4282 23.3246C11.8827 24.2251 13.1945 24.2251 13.649 23.3246L16.3157 18.0847C16.8301 18.8394 17.559 19.6026 18.5708 20.1772C21.4003 21.7724 24.5815 20.7089 22.2749 19.3368C20.5772 18.3248 19.8827 17.0727 19.7369 15.5891L23.6897 13.4279C24.8216 12.8019 24.8216 11.1981 23.6897 10.5721H23.6726H23.6812ZM19.8912 12.4417C19.4968 12.9048 19.0424 13.325 18.5279 13.7023C17.962 14.114 17.3275 14.457 16.6501 14.74C16.6501 14.6457 16.6758 14.5514 16.6758 14.457C16.6758 14.3713 16.6586 14.3027 16.6501 14.2169C16.5215 12.09 14.738 10.392 12.5343 10.392C10.3306 10.392 8.54714 12.09 8.41853 14.2169C8.41853 14.2941 8.3928 14.3713 8.3928 14.457C8.3928 14.5514 8.41853 14.6457 8.41853 14.74C7.72399 14.457 7.09806 14.114 6.53214 13.7023C6.01767 13.3336 5.56322 12.9048 5.1688 12.4502C5.15165 12.4245 5.12592 12.4074 5.1002 12.3816C5.33171 12.0986 5.59752 11.8413 5.88048 11.5926C7.50106 10.1433 9.87619 9.21708 12.5343 9.21708C15.1924 9.21708 17.559 10.1347 19.1795 11.5841C19.4625 11.8328 19.7197 12.0986 19.9598 12.3816C19.9427 12.4074 19.9169 12.4245 19.8998 12.4502L19.8912 12.4417ZM12.5343 15.9407C12.3028 15.9407 12.0799 15.8892 11.8912 15.7949C11.7283 15.7177 11.574 15.6148 11.4454 15.4862C11.1795 15.2203 11.0166 14.8601 11.0166 14.457C11.0166 13.6337 11.694 12.9648 12.5343 12.9648C13.3746 12.9648 14.052 13.6337 14.052 14.457C14.052 14.8601 13.8891 15.2203 13.6233 15.4862C13.5032 15.6148 13.3403 15.7177 13.1774 15.7949C12.9802 15.8892 12.7572 15.9407 12.5343 15.9407Z" fill="#A5F243"/>
</g>
</g>
<defs>
<clipPath id="clip0_471_150">
<rect width="24" height="24" fill="white" transform="translate(0.538574)"/>
</clipPath>
</defs>
</svg>
