<svg width="33" height="23" viewBox="0 0 33 23" fill="none" xmlns="http://www.w3.org/2000/svg">
<g clip-path="url(#clip0_471_108)">
<path fill-rule="evenodd" clip-rule="evenodd" d="M15.357 3.63741C15.522 5.40926 17.5488 6.81482 20.0353 6.81482C22.5217 6.81482 24.7489 5.29 24.7489 3.40741C24.7489 1.52481 22.6395 0 20.0353 0C11.0676 0 7.07275 6.67 7.07275 11.0741C7.07275 15.4781 10.7258 20.2741 16.5 23C19.0101 22.5059 21.355 21.2537 22.8398 19.3881C24.3364 17.5226 24.6546 15.427 23.9947 13.6126C22.9812 13.8085 22.0032 14.1322 21.0958 14.5667C20.6716 12.173 18.9746 10.0433 16.5 8.51852C13.8251 10.1626 12.081 12.5052 11.8335 15.1289C11.0558 13.8085 10.608 12.42 10.608 11.0741C10.608 9.1148 11.8924 5.46037 15.357 3.63741ZM32.7148 12.7778C30.5348 13.2207 28.508 14.3622 27.2117 16.0489C25.9154 17.7441 25.6326 19.6437 26.2101 21.2963C28.3902 20.8533 30.4169 19.7119 31.7133 18.0167C33.0095 16.3215 33.2923 14.4219 32.7148 12.7778ZM1.28679 18.0167C-0.00946063 16.33 -0.292278 14.4304 0.285141 12.7778C2.4652 13.2207 4.49204 14.3537 5.7883 16.0489C7.08454 17.7441 7.36736 19.6437 6.78994 21.2963C4.60989 20.8448 2.58303 19.7119 1.28679 18.0167Z" fill="#A5F243"/>
</g>
<defs>
<clipPath id="clip0_471_108">
<rect width="33" height="23" fill="white"/>
</clipPath>
</defs>
</svg>
