<svg width="25" height="24" viewBox="0 0 25 24" fill="none" xmlns="http://www.w3.org/2000/svg">
<g clip-path="url(#clip0_471_156)">
<path d="M24.6152 14.2692C24.6152 14.2692 23.4923 13.1369 21.7181 12.6858C24.4952 7.785 21.9923 2.55692 16.9009 1C16.9009 3.45923 16.4895 4.94538 15.1695 6.36962C13.5409 8.12115 12.6238 10.4477 12.6152 12.8804C12.5981 10.4565 11.6809 8.13 10.0609 6.36962C8.74095 4.94538 8.32952 3.45923 8.32952 1C3.23809 2.56577 0.735234 7.785 3.51237 12.6858C1.73809 13.1369 0.615234 14.2692 0.615234 14.2692C1.92666 17.3831 3.85523 19.3027 7.49809 19.5504L4.90094 22.2308C4.90094 22.2308 6.61523 24 8.32952 24C11.7581 24 12.6152 19.5858 12.6152 19.5769C12.6152 19.5769 13.4723 24 16.9009 24C18.6152 24 20.3295 22.2308 20.3295 22.2308L17.7323 19.5504C21.3838 19.3027 23.3123 17.3831 24.6152 14.2692ZM8.32952 17.8077C5.67237 17.8077 4.02666 16.9496 2.80952 14.8265C3.28094 14.57 3.90666 14.34 4.62666 14.2869C5.6638 15.5342 7.07809 16.7285 8.91237 17.8077H8.32952ZM11.1066 17.1973C11.1066 17.1973 5.69809 14.1012 7.11237 8.51923C11.4066 10.4654 11.1666 15.3219 11.1066 17.1973ZM14.1238 17.1973C14.0723 15.3219 13.8238 10.4565 18.1181 8.51923C19.5238 14.1012 14.1238 17.1973 14.1238 17.1973ZM16.9009 17.8077H16.3181C18.1609 16.7285 19.5752 15.5342 20.6038 14.2869C21.3238 14.34 21.9495 14.57 22.4209 14.8265C21.2038 16.9496 19.5581 17.8077 16.9009 17.8077Z" fill="#A5F243"/>
</g>
<defs>
<clipPath id="clip0_471_156">
<rect width="24" height="24" fill="white" transform="translate(0.615234)"/>
</clipPath>
</defs>
</svg>
