<svg width="25" height="24" viewBox="0 0 25 24" fill="none" xmlns="http://www.w3.org/2000/svg">
<path fill-rule="evenodd" clip-rule="evenodd" d="M12.9272 0L5.75361 12L12.9272 24L20.1008 12L12.9272 0ZM12.9272 3.34286V10.08L7.75634 11.9914L12.9272 3.34286ZM12.9272 13.9114L18.098 12L12.9272 20.6571V13.92V13.9114ZM17.2693 20.0829L22.4229 21.4286L19.9109 15.6771L17.2693 20.0829ZM3.43148 21.4286L8.58505 20.0829L5.94352 15.6771L3.42285 21.4286H3.43148ZM17.2693 3.91714L22.4229 2.57143L19.9109 8.32286L17.2693 3.91714ZM3.43148 2.57143L8.58505 3.91714L5.94352 8.32286L3.42285 2.57143H3.43148Z" fill="#A5F243"/>
</svg>
