<svg width="25" height="24" viewBox="0 0 25 24" fill="none" xmlns="http://www.w3.org/2000/svg">
<path d="M23.7179 11.9045C23.0684 9.28066 20.5565 6.49679 17.755 4.79288C18.0054 4.08091 18.3419 3.46494 18.788 3.03296C19.2418 2.57698 19.2497 1.81702 18.8036 1.35304C18.3576 0.889065 17.6142 0.881065 17.1603 1.33704C16.5186 1.97701 16.0178 2.81697 15.6579 3.76093C14.6953 3.40094 13.7485 3.19295 12.8642 3.19295C11.98 3.19295 11.0331 3.40094 10.0706 3.76093C9.71062 2.80897 9.20197 1.97701 8.56812 1.33704C8.11425 0.881065 7.37085 0.889065 6.92481 1.35304C6.47877 1.81702 6.48659 2.57698 6.94046 3.03296C7.37868 3.47294 7.71516 4.08891 7.9734 4.79288C5.17194 6.48879 2.66784 9.28066 2.01052 11.9045C1.48622 14.0164 2.22963 15.8083 4.05292 16.8243C4.64765 17.1523 5.25802 17.3203 5.84492 17.3203C6.35356 17.3203 6.86221 17.1923 7.33172 16.9443C7.79342 17.7043 8.85766 19.1362 10.6027 19.8722C11.2287 21.8321 11.7922 23 12.8251 23C13.858 23 14.4136 21.8481 15.0318 19.8962C16.8317 19.1682 17.8959 17.6883 18.3341 16.9363C19.3592 17.4723 20.5095 17.4563 21.6364 16.8243C23.4597 15.8083 24.2109 14.0084 23.6788 11.9045H23.7023H23.7179ZM16.8864 15.6244C16.8864 15.6244 16.9177 15.6564 16.9256 15.6724L16.816 15.6244H16.8864ZM15.0944 10.8246C15.2275 11.6645 15.4153 12.4725 15.6735 13.2085H10.0862C10.3445 12.4645 10.5323 11.6565 10.6653 10.8246H15.0944ZM12.8799 5.56084C13.545 5.56084 14.3041 5.74483 15.071 6.05682C14.9536 6.81678 14.8988 7.61674 14.9066 8.4087H10.8609C10.8609 7.61674 10.814 6.81678 10.6966 6.05682C11.4635 5.74483 12.2147 5.56084 12.8877 5.56084H12.8799ZM5.18759 14.7364C4.29551 14.2404 4.02162 13.5445 4.27986 12.4885C4.7259 10.7046 6.47877 8.68069 8.47422 7.28076C8.66985 9.80064 8.13773 12.6405 7.05784 14.1284C6.31444 15.1604 5.71189 15.0244 5.17977 14.7364H5.18759ZM12.8799 17.9122C10.8531 17.9122 9.68714 16.2403 9.335 15.6244H16.3934C16.0882 16.1763 14.9614 17.9122 12.8799 17.9122ZM20.5721 14.7364C20.04 15.0324 19.4453 15.1604 18.6941 14.1284C17.6142 12.6405 17.0899 9.80064 17.2777 7.28076C19.2731 8.68069 21.026 10.6966 21.4721 12.4885C21.7381 13.5525 21.4564 14.2484 20.5643 14.7364H20.5721Z" fill="#A5F243"/>
</svg>
