<svg width="25" height="24" viewBox="0 0 25 24" fill="none" xmlns="http://www.w3.org/2000/svg">
<path fill-rule="evenodd" clip-rule="evenodd" d="M7.35223 11.1555L8.75656 7.2958L12.6227 5.89075V3.53771L14.6107 1.54863C10.9138 0.380578 6.98001 1.06617 4.33207 3.71546C1.68414 6.36474 0.998887 10.3006 2.15789 13.991L5.0004 11.1555H7.35223ZM23.0706 10.0128L21.0825 12.0019H18.7307L17.3264 15.8615L13.4687 17.2666V19.6112L10.6346 22.4551C14.3231 23.6147 18.2569 22.9376 20.9049 20.2883C23.5528 17.639 24.2296 13.7032 23.0706 10.0043V10.0128ZM19.3906 5.23901L16.0066 14.5496L9.96633 16.7418L7.08997 20.7708C6.84465 21.1178 6.4724 21.3632 6.04941 21.4479L2.47091 22.1673L3.18152 18.587C3.26612 18.1638 3.51146 17.7914 3.85831 17.5374L7.8852 14.6681L10.0848 8.62467L19.3906 5.23901ZM15.1437 9.47955L12.0643 10.6053L10.9392 13.6862L14.0186 12.5605L15.1437 9.47955Z" fill="#A5F243"/>
</svg>
