<svg width="25" height="24" viewBox="0 0 25 24" fill="none" xmlns="http://www.w3.org/2000/svg">
<g clip-path="url(#clip0_471_112)">
<mask id="mask0_471_112" style="mask-type:luminance" maskUnits="userSpaceOnUse" x="0" y="0" width="25" height="24">
<path d="M24.769 0H0.769043V24H24.769V0Z" fill="white"/>
</mask>
<g mask="url(#mask0_471_112)">
<path fill-rule="evenodd" clip-rule="evenodd" d="M9.58098 5.87924C10.8556 4.59653 10.6894 2.40945 9.16532 1.44049C9.14685 1.44049 9.12837 1.42204 9.11914 1.41281C9.07295 1.38513 9.02677 1.35744 8.98058 1.32976C7.56735 0.573045 5.80311 1.17288 5.02722 2.57556L2.2377 7.59568L4.04812 7.30038L0.769043 14.7567L9.59021 5.88847L9.58098 5.87924ZM12.5829 20.7827L20.1663 13.1695C22.2539 11.0747 22.2539 7.69719 20.1663 5.6024C18.0788 3.51683 14.6889 3.51683 12.5921 5.6024L4.98104 13.1972L8.29706 13.1418L3.02283 22.7391L12.6291 17.4698L12.5829 20.7735H12.5737L12.5829 20.7827ZM24.3322 16.6024C24.3783 16.667 24.4061 16.7223 24.443 16.7869C25.1912 18.1988 24.6 19.9614 23.196 20.7366L18.1712 23.5235L18.4668 21.7055L11.0034 25L19.88 16.1871C21.1639 14.9136 23.3438 15.0705 24.3137 16.6024H24.3322Z" fill="#A5F243"/>
</g>
</g>
<defs>
<clipPath id="clip0_471_112">
<rect width="24" height="24" fill="white" transform="translate(0.769043)"/>
</clipPath>
</defs>
</svg>
