<svg width="25" height="24" viewBox="0 0 25 24" fill="none" xmlns="http://www.w3.org/2000/svg">
<path d="M4.37838 18.5202C6.42439 17.6181 7.05689 17.6481 7.13499 14.9029C7.21419 12.1588 6.76429 11.2845 7.91599 9.498C9.06769 7.71044 11.2523 2.17668 13.5205 1.22235C15.7887 0.269138 14.3851 2.59552 14.054 4.13311C13.7229 5.66958 13.3126 9.78797 14.1772 10.9545C15.0418 12.1232 17.1813 14.4885 17.7599 14.9473C18.3385 15.4073 18.0459 16.9438 14.0529 17.6526C10.0599 18.3614 8.16349 17.6526 8.16349 17.6526C8.16349 17.6526 12.6504 19.609 16.6038 18.3169C20.5572 17.0237 19.5298 15.6961 19.5298 15.6961C19.5298 15.6961 24.6778 14.9873 23.7296 17.6526C22.7803 20.3189 18.289 22.5586 14.1079 22.893C9.93229 23.2274 2.02548 22.853 1.86268 20.6877C1.86268 20.6877 1.48207 19.799 4.37838 18.5213V18.5202Z" fill="#A5F243"/>
</svg>
