<svg width="25" height="24" viewBox="0 0 25 24" fill="none" xmlns="http://www.w3.org/2000/svg">
<g clip-path="url(#clip0_471_120)">
<path fill-rule="evenodd" clip-rule="evenodd" d="M17.8307 1.28373C19.8448 0.495377 22.3433 1.41206 23.6353 3.26377H23.6163C26.4189 7.27885 23.3218 12.7331 19.2083 12.9806C15.0947 13.219 13.9262 13.8331 13.3371 16.2532C12.5866 19.2966 10.8861 20.3691 8.65353 21.7808C8.48253 21.8908 8.30203 22.0008 8.12152 22.12C7.73201 22.3583 7.67501 22.395 7.54201 22.4592C7.45651 22.505 7.33301 22.5692 7.048 22.7342C6.47799 23.0458 5.86048 23.1742 5.33797 22.6058C4.84396 22.065 5.18597 21.6891 5.51847 21.3316C5.57547 21.2675 5.63247 21.2033 5.68948 21.1483C6.50649 20.2041 7.0195 19.4708 7.57051 18.6916C7.96002 18.1416 8.35903 17.5641 8.91004 16.8674C9.40405 16.2257 9.71755 15.4648 10.0406 14.704C10.1451 14.4473 10.2591 14.1815 10.3731 13.934C11.7126 10.9914 13.8312 9.30472 17.2797 9.43306C18.7617 9.48806 20.2913 8.89221 20.8043 7.43469C21.0038 6.84801 21.0133 5.59215 20.1203 5.29881C19.4838 5.08797 18.6667 5.21631 18.5527 6.34383C18.4387 7.47135 18.0302 8.25054 16.9282 8.37887C15.7977 8.47971 15.0092 7.91136 14.7622 6.82051C14.2302 4.39129 15.4177 2.26458 17.8402 1.31123L17.8307 1.28373ZM6.20249 11.3948L8.49203 13.6131C8.49203 13.6131 8.52053 13.549 8.53003 13.5215C8.57753 13.4115 8.61553 13.3015 8.67253 13.2006C9.64155 11.0648 10.9811 9.54306 12.6721 8.62638L10.8766 6.89384L12.8146 5.01464C12.8431 4.73046 12.8906 4.45546 12.9571 4.17129C13.0141 3.29127 12.8051 1.94374 11.2376 1.57707C11.3421 3.1171 9.58455 5.36298 8.36853 6.72884L5.32847 3.78628L5.30947 2.14541C5.30947 2.14541 3.33343 0.917052 1.3764 2.22791C0.0178698 4.11628 1.29089 6.02299 1.29089 6.02299L2.99142 6.04132L6.03148 8.98388C4.62546 10.1572 2.28841 11.8531 0.692383 11.7523C1.29089 14.0715 4.23595 13.2923 4.23595 13.2923L6.19299 11.3948H6.20249ZM19.0468 14.7773L21.4598 17.1057L22.1343 22.2667L16.7952 21.6158L14.1922 19.1041C14.5817 18.4166 14.9047 17.6099 15.1327 16.6565C15.4367 15.4373 15.5507 15.0065 19.0373 14.7773H19.0468Z" fill="#A5F243"/>
</g>
<defs>
<clipPath id="clip0_471_120">
<rect width="24" height="24" fill="white" transform="translate(0.692383)"/>
</clipPath>
</defs>
</svg>
