<svg width="25" height="24" viewBox="0 0 25 24" fill="none" xmlns="http://www.w3.org/2000/svg">
<path d="M17.6384 1.76591V5.23449C16.1342 3.54422 13.636 1 12.1494 1C10.6628 1 8.15581 3.54422 6.66041 5.23449V1.76591L4.03026 2.69028L1.15381 12.5678L4.03026 20.3413H2.28856V23H22.0103V20.3413H20.2774L23.1538 12.5678L20.2774 2.69028L17.6472 1.76591H17.6384ZM19.1778 12.5414C18.7292 14.5838 17.0842 18.2813 14.1374 18.8007C12.5628 19.0736 10.4429 17.3393 9.34333 15.2969C9.12342 14.8832 8.50767 15.1032 8.57804 15.561C8.85073 17.5066 10.0207 19.3025 11.0235 20.1301C11.1202 20.2181 11.1906 20.3589 11.1466 20.4822C11.1026 20.6583 10.9179 20.7463 10.7508 20.7111C10.7156 20.7111 9.71279 20.4294 8.44609 19.2585C6.91551 17.8499 4.56684 14.5574 5.59603 11.7315C6.14142 10.2173 8.70119 9.2401 11.0059 9.30172C11.4633 9.30172 11.5864 8.67667 11.1642 8.5006C9.36093 7.76991 7.23218 7.88435 6.01826 8.35094C5.89511 8.39496 5.74557 8.38615 5.64881 8.28051C5.52566 8.14846 5.53446 7.94598 5.64881 7.82273C5.6752 7.78752 6.41411 7.05682 8.05025 6.53742C10.0295 5.91236 14.0231 5.4986 15.9319 7.81393C16.9523 9.05522 16.5213 11.7667 15.3161 13.7563C15.0786 14.1525 15.5624 14.575 15.9319 14.2933C17.4537 13.0784 18.4213 11.1681 18.6324 9.87395C18.6588 9.7419 18.738 9.61865 18.8787 9.59224C19.0546 9.55702 19.2218 9.65386 19.2746 9.82113C19.2746 9.85634 19.5472 10.8687 19.1778 12.5678V12.5414Z" fill="#A5F243"/>
</svg>
