<svg width="25" height="24" viewBox="0 0 25 24" fill="none" xmlns="http://www.w3.org/2000/svg">
<path fill-rule="evenodd" clip-rule="evenodd" d="M9.23793 16.8701C8.84027 17.2675 8.29032 17.4958 7.72344 17.4958H5.56593C4.99905 17.4958 4.4491 17.2675 4.05144 16.8701L3.06152 15.8809L2.16467 14.9846C1.76701 14.5872 1.53857 14.0377 1.53857 13.4712V12C1.53857 9.37894 2.46926 6.9608 4.00067 5.06687C6.02281 2.58109 9.0941 1 12.5461 1C15.1182 1 17.4873 1.89623 19.3571 3.37586C20.0424 3.90853 20.6516 4.52575 21.1931 5.21061C19.3317 5.04151 13.8407 4.93159 12.2162 8.77018C12.0723 9.11683 11.7593 10.0553 11.7593 11.2221V13.4796C11.7593 14.0461 11.5308 14.5957 11.1332 14.9931L9.24639 16.8786L9.23793 16.8701ZM3.10382 11.2221V13.5811H5.4644V15.94H7.82497V13.5811H10.1855V11.2221H7.82497V8.86318H5.4644V11.2221H3.10382ZM13.2992 12.2283C13.6291 11.1122 16.5904 7.28209 18.4433 7.28209C20.0255 7.28209 22.403 10.0469 23.2745 11.5688C23.4522 11.8816 23.5537 12.2452 23.5368 12.6088C23.4099 15.0015 22.5215 17.1914 21.1001 18.9331C19.0779 21.4189 16.0066 23 12.5546 23C9.98248 23 7.61345 22.1122 5.73514 20.6241C5.43901 20.3789 5.14289 20.1253 4.87214 19.8632C5.91282 19.9308 11.3447 20.0323 12.8761 15.2214C13.02 14.7563 13.0961 13.97 13.1638 13.3105C13.2146 12.837 13.2484 12.4228 13.3076 12.2283H13.2992ZM19.6194 13.5811L22.0138 12.6849C22.2761 12.5834 22.2761 12.2114 22.0138 12.1184L19.6194 11.2221L18.7226 8.82936C18.621 8.56726 18.2487 8.56726 18.1557 8.82936L17.2588 11.2221L14.8644 12.1184C14.6021 12.2198 14.6021 12.5919 14.8644 12.6849L17.2588 13.5811L18.1557 15.9739C18.2572 16.236 18.6295 16.236 18.7226 15.9739L19.6194 13.5811Z" fill="#A5F243"/>
</svg>
