<svg width="25" height="24" viewBox="0 0 25 24" fill="none" xmlns="http://www.w3.org/2000/svg">
<g clip-path="url(#clip0_471_164)">
<mask id="mask0_471_164" style="mask-type:luminance" maskUnits="userSpaceOnUse" x="0" y="0" width="25" height="24">
<path d="M24.769 0H0.769043V24H24.769V0Z" fill="white"/>
</mask>
<g mask="url(#mask0_471_164)">
<path d="M21.7476 5.88868L19.1845 3.48815C20.0389 6.49361 16.8711 7.03133 16.2183 5.83106C15.0088 3.63218 17.7542 2.48953 17.7542 2.48953C14.8072 0.578709 10.0268 -0.813598 6.26378 0.5403C8.38525 1.51011 14.0681 2.8256 12.369 5.16852C11.025 7.01212 8.30845 2.99844 8.30845 2.99844C8.30845 2.99844 8.29886 6.84889 11.5434 8.51005C12.3402 8.92294 13.2521 9.06698 14.1449 8.93255C15.844 8.66369 17.6582 9.23981 18.9158 10.6513C20.8068 12.7542 20.778 16.0381 18.8678 18.1122C16.7847 20.3783 13.3001 20.4071 11.169 18.2274C9.88276 16.9119 9.38359 15.0875 9.68117 13.3783C9.97875 11.6788 9.39319 9.93117 8.04927 8.88453C7.22372 8.24119 6.45577 8.00114 6.45577 8.00114C6.45577 8.00114 8.13566 11.3139 5.8702 11.0066C3.60474 10.6993 4.2479 8.41403 5.18865 5.0725C6.28298 1.17404 0.772922 1.02041 0.772922 1.02041C3.22077 3.29611 0.926512 5.77345 0.772922 8.7405C0.64813 11.1122 3.57595 13.8104 3.57595 13.8104C4.47829 10.6513 8.85562 15.0395 7.87648 16.595C6.89734 18.1506 3.90233 15.7212 3.90233 15.7212C3.90233 15.7212 4.3439 17.9777 7.11813 20.82C11.3706 25.1697 17.6966 24.9489 21.738 20.82C25.7793 16.6911 25.7793 10.008 21.738 5.87907L21.7476 5.88868Z" fill="#A5F243"/>
</g>
</g>
<defs>
<clipPath id="clip0_471_164">
<rect width="24" height="24" fill="white" transform="translate(0.769043)"/>
</clipPath>
</defs>
</svg>
