<svg width="25" height="24" viewBox="0 0 25 24" fill="none" xmlns="http://www.w3.org/2000/svg">
<g clip-path="url(#clip0_471_170)">
<mask id="mask0_471_170" style="mask-type:luminance" maskUnits="userSpaceOnUse" x="0" y="0" width="25" height="24">
<path d="M24.4614 0H0.461426V24H24.4614V0Z" fill="white"/>
</mask>
<g mask="url(#mask0_471_170)">
<path fill-rule="evenodd" clip-rule="evenodd" d="M23.9059 1.96736C23.6091 2.04414 19.7401 2.97504 16.283 0C16.283 0 15.2105 1.92898 12.462 1.92898C9.71358 1.92898 8.63143 0 8.63143 0C5.03066 3.0998 0.989387 1.95777 0.989387 1.95777C0.587174 7.50477 4.65719 10.9117 4.65719 10.9117C4.36032 8.86753 4.72423 6.66984 5.75849 5.76774L7.67379 8.06139L10.3361 4.84643L12.462 8.06139L14.588 4.84643L17.2503 8.06139L19.1656 5.76774C20.1998 6.66984 20.5637 8.86753 20.2669 10.9117C20.2669 10.9117 24.3273 7.51437 23.9347 1.96736H23.9059ZM11.1883 9.5873C7.30031 13.5988 11.4277 15.9692 11.4277 15.9692H11.4469C9.29222 9.2898 16.0628 8.12857 19.1656 10.3263C17.911 11.2668 17.2503 12.524 17.2503 16.3819C17.2503 20.2399 13.6782 24.9039 8.83255 23.8483C4.21667 22.8502 4.74338 18.5508 4.74338 18.5508C6.35223 21.8521 10.4701 21.2091 11.1309 20.8157C11.1309 20.8157 9.93384 20.9692 7.95151 19.3857C7.95151 19.2898 7.95151 19.1938 7.96108 19.0978C7.98981 18.474 8.0377 17.6775 6.92682 16.19C3.47928 11.5931 8.51652 7.77349 11.1788 9.56811L11.1883 9.5873Z" fill="#A5F243"/>
</g>
</g>
<defs>
<clipPath id="clip0_471_170">
<rect width="24" height="24" fill="white" transform="translate(0.461426)"/>
</clipPath>
</defs>
</svg>
