<svg width="25" height="24" viewBox="0 0 25 24" fill="none" xmlns="http://www.w3.org/2000/svg">
<path d="M15.351 2.02345C15.5697 1.61551 15.8568 1.18338 16.3241 1.04152C16.748 0.939125 17.1686 1.0456 17.5836 1.15064C17.7123 1.1832 17.8404 1.21563 17.9679 1.24165L18.1054 1.27357C19.4071 1.57554 20.7712 1.89196 21.8132 2.77776C23.2382 4.02358 23.778 6.10726 23.3096 7.91826C23.2041 8.2987 23.0776 8.74516 22.6884 8.92764C22.4065 9.04782 22.0959 8.97263 21.8069 8.90265C21.7757 8.89509 21.7448 8.8876 21.7142 8.88043C20.7037 8.61868 19.7063 8.22833 18.8839 7.57078C18.2043 7.06286 17.6974 6.36234 17.2873 5.62787C16.9662 5.10886 17.074 4.45132 17.2279 3.89493C17.295 3.60794 17.5731 3.4386 17.8568 3.44301C18.8508 3.40782 19.8196 3.92022 20.4244 4.69762C20.9103 5.32658 21.2425 6.05894 21.5492 6.78797C21.9451 4.85926 20.5222 2.85473 18.6298 2.44899C17.9767 2.30494 17.2147 2.35003 16.6935 2.81405C16.2449 3.19889 16.0668 3.82346 16.1393 4.39853C16.2933 5.66195 16.8497 6.90342 17.7997 7.76762C18.6727 8.58137 19.8185 8.99699 20.9236 9.38946C21.1264 9.46709 21.3348 9.5367 21.5439 9.60651C22.2382 9.8384 22.9394 10.0726 23.4625 10.61C23.4154 10.6597 23.3688 10.711 23.3218 10.7627C23.0659 11.0442 22.8007 11.336 22.4124 11.4149C21.3469 11.7064 20.2715 11.9647 19.1852 12.1615C18.1867 12.3584 17.2642 11.8174 16.444 11.3237C15.0046 10.4089 13.8654 9.09152 12.9593 7.66096C12.6295 7.131 12.8703 6.46354 13.1485 5.96434C13.5227 5.25961 13.9182 4.56694 14.3138 3.8742C14.6644 3.26015 15.0151 2.64605 15.351 2.02345Z" fill="#A5F243"/>
<path d="M11.0021 7.88841C11.4067 7.7037 11.8762 7.95332 12.1127 8.29312C13.3309 9.92264 14.7836 11.4071 16.5264 12.4759C16.7441 12.6243 16.997 12.809 17.0102 13.0993C17.0323 13.4272 16.7775 13.664 16.5538 13.872C16.5329 13.8914 16.5123 13.9105 16.4922 13.9295C15.8017 14.521 15.1333 15.1391 14.4845 15.7779C14.445 15.8182 14.4054 15.8596 14.3654 15.9014C14.0719 16.2082 13.7595 16.5348 13.3211 16.5949C12.8361 16.6532 12.4106 16.3657 12.0268 16.1064L12.006 16.0923C10.384 14.9741 9.24273 13.2939 8.4312 11.5236C8.29428 11.2481 8.38995 10.9599 8.48313 10.6792C8.51566 10.5813 8.54789 10.4842 8.56981 10.3889C8.63258 10.4222 8.69797 10.4537 8.76386 10.4854C9.03954 10.6181 9.32394 10.7551 9.46151 11.0453C10.074 12.124 11.0934 12.9465 12.2666 13.3434C12.0404 13.0069 11.8078 12.6745 11.5752 12.342C11.1032 11.6674 10.6309 10.9926 10.2126 10.2833C9.74964 9.45758 10.1168 8.26006 11.0021 7.88841Z" fill="#A5F243"/>
<path d="M6.76273 12.5267C6.73347 12.5452 6.70463 12.5636 6.67623 12.5811C5.63602 13.3058 4.58593 14.0173 3.51494 14.6968C3.45177 14.7387 3.38718 14.7797 3.32232 14.821C3.00787 15.0208 2.68703 15.2248 2.49014 15.5511C2.00962 16.3109 1.83149 17.2544 1.96674 18.1395C2.04701 18.5738 2.24933 19.0708 2.71115 19.2106C3.04432 19.3161 3.43907 19.5107 3.44127 19.9164L3.44144 19.9443C3.44456 20.4597 3.44806 21.0389 3.8855 21.3954C4.11091 21.402 4.32203 21.3085 4.51226 21.1975C4.89118 20.9717 5.2148 20.6746 5.53828 20.3777C5.7583 20.1757 5.97825 19.9738 6.2155 19.7944C6.25014 19.7971 6.3021 19.8015 6.35405 19.8059C6.40601 19.8103 6.45796 19.8147 6.4926 19.8175C6.26302 20.4133 6.02691 21.0067 5.79072 21.6002C5.67736 21.8851 5.56398 22.1701 5.45129 22.4554C5.64461 22.5017 5.83754 22.5503 6.03051 22.5989C6.63 22.75 7.22985 22.9011 7.84285 22.9843C8.45865 23.0865 9.03259 22.6786 9.2998 22.1464C10.0112 20.8006 10.8579 19.5338 11.7067 18.2737C11.725 18.2435 11.7439 18.2131 11.7631 18.1824C11.9139 17.9397 12.0766 17.678 12.0356 17.3852C11.9792 17.0724 11.7063 16.892 11.4555 16.7262C11.4171 16.7008 11.3792 16.6758 11.3428 16.6507C9.96726 15.7699 8.86547 14.4857 8.16728 13.0122C8.13904 12.9612 8.11208 12.9071 8.08472 12.8522C7.96819 12.6183 7.84448 12.37 7.58444 12.2854C7.28658 12.1939 7.00978 12.3697 6.76273 12.5267Z" fill="#A5F243"/>
</svg>
