<svg width="25" height="24" viewBox="0 0 25 24" fill="none" xmlns="http://www.w3.org/2000/svg">
<path d="M13.0406 2.139C17.6728 2.139 21.1745 7.977 17.359 12.738C18.5455 13.1909 19.6163 13.8967 20.4954 14.805C21.9568 16.321 23.0771 18.622 23.0771 22H21.559C21.559 18.979 20.5703 17.057 19.3963 15.84C18.4328 14.8438 17.1938 14.15 15.8339 13.845L14.4423 13.552L15.4635 12.573C19.6372 8.574 16.5423 3.639 13.0406 3.639V2.139ZM11.3545 2V21.556H2.07715C2.07715 15.156 6.29436 12.667 8.40245 12.223C3.76423 7.779 7.13739 2 11.3545 2Z" fill="#A5F243"/>
</svg>
