<svg width="24" height="24" viewBox="0 0 24 24" fill="none" xmlns="http://www.w3.org/2000/svg">
<path fill-rule="evenodd" clip-rule="evenodd" d="M13.8333 1.84615C13.8333 2.86154 13.0083 3.69231 12 3.69231C10.9917 3.69231 10.1667 2.86154 10.1667 1.84615C10.1667 0.830769 10.9917 0 12 0C13.0083 0 13.8333 0.830769 13.8333 1.84615ZM20.25 6V9.26769C21.955 10.2462 23 11.52 23 12.9231V18.4615C23 21.5169 18.0775 24 12 24C5.9225 24 1 21.5169 1 18.4615V12.9231C1 11.52 2.045 10.2462 3.75 9.26769V6C3.75 4.35692 5.63833 2.94462 8.37917 2.27077C8.59 4.10769 10.13 5.53846 12 5.53846C13.87 5.53846 15.41 4.10769 15.6208 2.27077C18.3617 2.94462 20.25 4.35692 20.25 6ZM12 10.1538C9.39667 10.1538 7.09583 9.54462 5.58333 8.59385V10.6154C5.58333 11.2892 7.82917 12.9231 12 12.9231C16.1708 12.9231 18.4167 11.2892 18.4167 10.6154V8.59385C16.9042 9.54462 14.6033 10.1538 12 10.1538ZM12 21.2308C17.0325 21.2308 20.25 19.0431 20.25 17.5385V15.3323C19.645 15.5354 19.3242 15.84 18.9575 16.2185C18.4533 16.7446 17.8208 17.4 16.4367 17.6215C15.0158 17.7969 14.255 17.3354 13.65 16.9662H13.6317C13.155 16.6615 12.77 16.4308 12.0183 16.4585C11.23 16.44 10.845 16.6708 10.3592 16.9662C9.83667 17.28 9.20417 17.6585 8.16833 17.6585C7.99417 17.6585 7.80167 17.6585 7.6 17.6215C6.18833 17.4 5.55583 16.7446 5.05167 16.2185C4.685 15.84 4.37333 15.5354 3.75917 15.3323V17.5385C3.75917 19.0431 6.97667 21.2308 12.0092 21.2308H12Z" fill="#A5F243"/>
</svg>
