<svg width="25" height="24" viewBox="0 0 25 24" fill="none" xmlns="http://www.w3.org/2000/svg">
<g clip-path="url(#clip0_471_130)">
<mask id="mask0_471_130" style="mask-type:luminance" maskUnits="userSpaceOnUse" x="0" y="0" width="25" height="24">
<path d="M24.231 0H0.230957V24H24.231V0Z" fill="white"/>
</mask>
<g mask="url(#mask0_471_130)">
<path fill-rule="evenodd" clip-rule="evenodd" d="M15.6526 0L19.5502 4.00615C17.5213 5.64 14.9852 6.60923 12.2177 6.60923C9.45009 6.60923 6.90504 5.64 4.88502 4.01539L8.79158 0H15.6526ZM0.230957 8.84308L3.47901 5.49231L7.54575 11.4462L2.71372 16.4954L0.230957 8.84308ZM3.94175 17.7323L11.3723 24V17.0585L8.55132 12.9046L3.94175 17.7231V17.7323ZM16.9251 11.4462L20.9829 5.49231L24.231 8.84308L21.7482 16.4954L16.9251 11.4462ZM13.0897 17.0585V24L20.5291 17.7323L15.9195 12.9138L13.0897 17.0677V17.0585ZM6.73597 7.19077C8.42673 7.95692 10.2777 8.39077 12.2354 8.39077C14.1932 8.39077 16.0441 7.95692 17.7349 7.19077L12.2354 15.24L6.73597 7.19077Z" fill="#A5F243"/>
</g>
</g>
<defs>
<clipPath id="clip0_471_130">
<rect width="24" height="24" fill="white" transform="translate(0.230957)"/>
</clipPath>
</defs>
</svg>
