<svg width="30" height="24" viewBox="0 0 30 24" fill="none" xmlns="http://www.w3.org/2000/svg">
<path fill-rule="evenodd" clip-rule="evenodd" d="M21.1758 5.33333L23.2471 7.11112V10.6666L17.0329 14.2222H12.89L6.67571 10.6666V7.11112L8.74714 5.33333V3.55556L14.9614 0L21.1758 3.55556V5.33333ZM10.8186 7.11112L8.74714 8.88889L13.9258 11.1111L10.8186 7.11112ZM19.1043 7.11112L15.9971 11.1111L21.1758 8.88889L19.1043 7.11112ZM10.8186 16L4.60428 12.4444V8.88889L1.49714 10.6666L0.461426 16L3.56857 18.6667H7.71143L10.8186 16ZM29.4614 16L28.4258 10.6666L25.3185 8.88889V12.4444L19.1043 16L22.2114 18.6667H26.3543L29.4614 16ZM14.9718 16L10.3111 20L14.9718 24L19.6325 20L14.9718 16Z" fill="#A5F243"/>
</svg>
