<svg width="25" height="24" viewBox="0 0 25 24" fill="none" xmlns="http://www.w3.org/2000/svg">
<g clip-path="url(#clip0_471_136)">
<mask id="mask0_471_136" style="mask-type:luminance" maskUnits="userSpaceOnUse" x="0" y="0" width="25" height="24">
<path d="M24.3848 0H0.384766V24H24.3848V0Z" fill="white"/>
</mask>
<g mask="url(#mask0_471_136)">
<path fill-rule="evenodd" clip-rule="evenodd" d="M18.3848 13.8571L15.8134 15.5714L14.0991 14.7143L14.9562 3.57143L12.3848 1L9.81334 3.57143L10.6705 14.7143L8.9562 15.5714L6.38477 13.8571L8.09906 18.1429H11.5277L9.81334 22.4286L12.3848 25L14.9562 22.4286L13.2419 18.1429H16.6705L18.3848 13.8571ZM19.2419 7C19.2419 6.05714 18.4705 5.28571 17.5277 5.28571C16.5848 5.28571 15.8134 6.05714 15.8134 7C15.8134 7.94286 16.6705 12.1429 16.6705 12.1429C16.6705 12.1429 19.2419 8.71429 19.2419 7ZM20.0991 7.42857C20.0991 6.24571 21.0591 5.28571 22.2419 5.28571C23.4248 5.28571 24.3848 6.24571 24.3848 7.42857C24.3848 17.2771 18.3848 23.2857 18.3848 23.2857C18.3848 23.2857 20.0991 18.6743 20.0991 7.42857ZM8.9562 7C8.9562 6.05714 8.18477 5.28571 7.24191 5.28571C6.29906 5.28571 5.52763 6.05714 5.52763 7C5.52763 8.71429 8.09906 12.1429 8.09906 12.1429C8.09906 12.1429 8.9562 7.94286 8.9562 7ZM0.384766 7.42857C0.384766 6.24571 1.34477 5.28571 2.52763 5.28571C3.71048 5.28571 4.67048 6.24571 4.67048 7.42857C4.67048 18.6743 6.38477 23.2857 6.38477 23.2857C6.38477 23.2857 0.384766 17.2771 0.384766 7.42857Z" fill="#A5F243"/>
</g>
</g>
<defs>
<clipPath id="clip0_471_136">
<rect width="24" height="24" fill="white" transform="translate(0.384766)"/>
</clipPath>
</defs>
</svg>
