<svg width="25" height="24" viewBox="0 0 25 24" fill="none" xmlns="http://www.w3.org/2000/svg">
<path fill-rule="evenodd" clip-rule="evenodd" d="M16.2723 2.16814C16.2723 3.36283 15.2766 4.33628 14.0546 4.33628C12.8326 4.33628 11.8369 3.36283 11.8369 2.16814C11.8369 0.973451 12.8326 0 14.0546 0C15.2766 0 16.2723 0.973451 16.2723 2.16814ZM9.00374 5.60177C9.71883 5.60177 10.2981 5.0354 10.2981 4.33628C10.2981 3.63717 9.71883 3.0708 9.00374 3.0708C8.28865 3.0708 7.70934 3.63717 7.70934 4.33628C7.70934 5.0354 8.28865 5.60177 9.00374 5.60177ZM22.8076 16.8496C22.8076 15.115 21.5585 13.0531 19.5671 11.4513C20.2822 10.9558 20.6895 10.3717 20.6895 9.75221C20.6895 7.87611 16.933 6.35398 12.3076 6.35398C7.68219 6.35398 3.92572 7.87611 3.92572 9.75221C3.92572 10.3717 4.33305 10.9469 5.04814 11.4513C3.05676 13.0442 1.80762 15.115 1.80762 16.8496C1.80762 18.5841 3.17443 20.3009 5.33779 21.4248L5.08434 24H7.79986L8.29771 22.5044C9.52874 22.8053 10.8865 22.9646 12.2985 22.9646C13.7106 22.9646 15.0684 22.7965 16.2994 22.5044L16.8425 24H19.558L19.2593 21.4248C21.4317 20.3009 22.7895 18.6726 22.7895 16.8496H22.8076ZM17.8925 9.87611C17.6481 9.9823 17.3494 10.0973 17.0054 10.2124C16.7248 10.3009 16.4171 10.3805 16.1003 10.4513C14.3352 10.8496 13.5567 12.0885 15.0503 14.7522C16.5438 17.4159 16.1003 19.4425 14.1632 19.6283C12.3257 19.8053 11.8188 17.7788 12.2895 15.3805C12.9503 12 10.461 12.6903 10.6602 14.531C10.8593 16.3717 10.5516 16.8584 9.64641 17.0442C8.15288 17.115 8.44253 15.7434 8.7684 14.2035C9.11236 12.6018 9.49253 10.823 7.92659 10.3097H7.93564C7.81796 10.2743 7.69124 10.2389 7.58262 10.2035C7.2296 10.0973 6.93995 9.9823 6.69555 9.86726C6.35159 9.71681 6.35159 9.19469 6.69555 9.0354C6.93995 8.9292 7.23865 8.81416 7.58262 8.69911C8.89512 8.28319 10.5606 8.0531 12.2804 8.0531C14.0003 8.0531 15.6658 8.28319 16.9783 8.69911C17.3313 8.80531 17.621 8.92035 17.8654 9.0354C18.2093 9.18584 18.2093 9.70796 17.8654 9.86726L17.8925 9.87611Z" fill="#A5F243"/>
</svg>
